<svg width="102" height="91" viewBox="0 0 102 91" fill="none" xmlns="http://www.w3.org/2000/svg">
<g clip-path="url(#clip0_68_190)">
<path d="M58.0161 22.0892C53.7315 22.4434 51.0269 23.5302 49.313 24.4909C47.7866 25.3495 46.1598 26.046 44.6268 26.8926C43.415 27.559 42.2234 27.2708 41.2794 28.0934C40.3154 28.934 40.5363 29.6605 39.9405 30.4951C38.3338 32.7407 32.5964 33.251 29.8985 31.0955C28.6533 30.1048 29.1955 29.4564 27.8901 26.8926C25.5269 22.2513 22.0925 21.7109 22.5343 19.0871C22.7151 18.0123 23.5252 16.9556 25.2122 14.8841C27.1604 12.4884 28.5328 10.8553 30.568 10.6812C31.2374 10.6271 31.7194 10.7472 33.2458 11.2816C39.3848 13.4251 40.0007 14.3738 41.9489 14.2837C44.1782 14.1816 46.3138 12.8067 47.3046 11.2816C47.6126 10.8133 47.7666 10.399 48.6436 5.8778C49.1658 3.20592 49.1524 3.13387 49.313 2.87569C51.1005 0.0296869 59.2412 -1.57344 62.7024 2.27527C64.5568 4.34072 61.6647 6.62833 63.3718 10.0808C64.7309 12.8307 68.3393 15.2144 71.4054 14.8841C72.6105 14.752 72.8113 14.3017 78.7696 11.2816C80.8918 10.2008 81.1261 10.1348 81.4475 10.0808C85.732 9.39627 91.5899 14.5539 90.82 17.8862C90.5723 18.955 89.856 18.943 86.8032 22.6896C85.0693 24.8151 84.8818 25.3375 84.7948 25.6917C84.0316 28.7359 87.225 31.4858 87.4727 31.6959C87.8877 32.0502 89.0258 32.9989 90.82 33.4972C93.6585 34.2838 95.1046 33.0949 96.8452 34.0976C97.836 34.668 98.1975 35.5326 98.8536 37.0997C99.1615 37.8383 99.9114 39.8617 99.5231 42.5035C99.262 44.2748 99.1147 45.3135 98.1841 46.1061C97.7356 46.4903 97.0795 46.8326 92.1589 47.3069C89.1128 47.6011 88.8116 47.5171 88.1421 47.9073C86.7965 48.6879 86.2743 50.0268 85.4643 52.1103C84.9755 53.3712 84.7011 54.1037 84.7948 55.1124C84.922 56.4213 85.5848 57.358 86.1337 58.1145C87.5128 60.0059 88.5773 60.0119 89.4811 61.7171C89.789 62.2935 90.2175 63.104 90.1505 64.1187C90.0836 65.1635 89.5078 66.0461 86.1337 68.9221C82.9002 71.6781 82.5186 71.8582 82.1169 71.9242C80.7847 72.1404 79.198 71.2698 76.0917 69.5225C74.3712 68.5559 73.1528 67.4871 71.4054 65.92C69.5644 64.2628 68.6405 63.4343 68.0581 62.3175C67.7234 61.681 66.7192 59.5255 67.3886 56.9137C67.5694 56.2112 68.1184 54.0857 70.0665 52.7107C70.9368 52.0983 73.2866 50.7593 74.0833 49.7086C74.8197 48.7359 74.3511 48.5498 75.4222 45.5057C76.2323 43.2 76.4934 43.206 76.7612 41.9031C77.1896 39.8257 76.8683 38.1745 76.7612 37.7002C76.48 36.4213 75.9043 35.4426 74.7528 33.4972C74.3712 32.8548 73.2733 31.0295 71.4054 28.6938C70.0933 27.0487 69.4372 26.2261 68.7276 25.6917C67.3619 24.659 65.7886 24.1907 62.7024 23.29C61.5308 22.9538 59.9442 22.5215 58.0161 22.0892Z" fill="#F2F2F2"/>
<path d="M65.3801 56.3136C63.9408 55.2328 62.4211 56.6198 60.0244 55.7132C57.2997 54.6805 55.2578 51.3901 56.0076 49.1085C56.6704 47.0911 59.1675 46.917 59.3549 44.9056C59.4419 43.9509 58.9532 43.2484 58.016 41.9035C56.5699 39.832 55.231 37.9107 53.3297 37.7005C50.5447 37.3943 49.7012 41.0929 45.9656 41.3031C43.8969 41.4231 41.4333 40.4384 40.6098 38.9014C40.3755 38.4691 40.4692 38.361 39.9404 35.2988C39.5922 33.3114 39.5119 33.1073 39.2709 32.8971C38.347 32.0986 37.142 32.9992 33.9152 32.8971C31.5988 32.8251 30.8423 32.3207 29.8984 32.8971C28.9477 33.4795 28.7067 34.6143 28.5594 35.2988C28.1511 37.2082 29.1084 37.8386 28.5594 38.9014C27.8632 40.2403 25.674 40.5465 24.5426 40.7026C23.6723 40.8227 21.6037 41.1169 19.8564 40.1022C18.571 39.3577 18.3501 38.421 17.1785 38.3009C16.4086 38.2229 15.7994 38.5531 15.1701 38.9014C13.8111 39.6459 13.8312 40.2943 11.8228 42.5039C10.9324 43.4826 10.611 43.7047 10.4838 44.3052C10.2227 45.524 11.0997 46.6408 11.1533 46.7069C11.7357 47.4274 12.1374 47.2893 12.4922 47.9077C12.8136 48.4721 12.7131 49.0905 12.4922 50.3094C12.2981 51.3781 12.191 51.9545 11.8228 52.7111C11.4479 53.4796 10.9591 54.4763 9.81435 55.1128C8.97082 55.5811 8.15407 55.6411 7.13648 55.7132C5.06783 55.8633 4.39836 55.3589 3.78915 55.7132C2.91884 56.2235 3.78915 57.5685 3.78915 60.5166C3.78915 63.2665 3.07282 64.035 3.78915 64.7195C4.90716 65.7883 7.17665 64.1371 9.14488 65.3199C9.70724 65.6562 9.62021 65.8483 11.1533 68.3221C12.8872 71.114 13.2487 71.2641 13.1617 71.9246C12.9408 73.6658 10.2294 73.6898 9.81435 75.5271C9.53987 76.746 10.524 77.9408 12.4922 80.3305C14.1056 82.2879 14.909 83.2666 15.8396 83.3326C18.1492 83.4947 18.986 79.2137 21.8648 79.1296C22.4539 79.1116 23.3711 79.5199 25.2121 80.3305C27.2004 81.2071 28.1979 81.6514 28.5594 82.1318C29.8113 83.8009 28.218 85.6983 29.8984 87.5356C29.9519 87.5956 30.1929 87.8538 30.5678 88.136C32.7168 89.7391 37.0282 90.2855 39.2709 88.136C40.2751 87.1693 39.4249 86.5809 40.6098 83.933C41.1655 82.6902 41.7814 81.3572 43.2877 80.3305C43.7965 79.9822 45.0484 79.1236 46.635 79.1296C49.487 79.1417 50.0225 81.9396 52.6602 82.1318C55.3448 82.3239 57.7482 79.64 58.6855 77.9288C59.1139 77.1543 59.6897 76.0975 59.3549 74.9267C58.9265 73.4076 57.3264 73.3476 56.6771 71.9246C56.0009 70.4475 56.6971 68.3341 58.016 67.1212C60.4395 64.8816 64.6102 66.0044 65.3801 64.1191C65.4939 63.8369 65.4404 63.7288 65.3801 62.9183C65.0789 58.7093 66.4847 57.1482 65.3801 56.3136ZM48.2552 64.2572C47.907 65.9023 47.0367 67.1752 45.7513 68.3461C44.8743 69.7451 43.435 70.8678 41.6676 71.4743C40.0073 72.6151 38.2734 73.4497 35.8432 73.2335C35.6826 73.2215 35.5152 73.1915 35.3545 73.1735C34.7654 73.4196 34.1294 73.5817 33.4131 73.6118C32.2147 73.6538 31.331 73.3596 30.5812 72.8913C28.2113 72.585 25.9284 71.8826 24.315 70.2974C23.8062 69.7991 23.3577 69.2287 22.9694 68.6163C21.7242 67.8717 20.8204 66.9171 20.2647 65.5121C19.9702 64.7615 19.8296 64.047 19.8162 63.3446C19.7425 63.1884 19.6823 63.0263 19.6287 62.8522C17.868 56.7159 21.2488 51.132 27.6623 48.6282C27.9904 48.5021 28.3184 48.4241 28.6398 48.382C29.7912 47.9617 31.0298 47.6975 32.2549 47.5955C33.0181 47.5294 33.7813 47.5294 34.5378 47.5835C34.6516 47.5835 34.7721 47.5835 34.8859 47.5895C35.7629 47.6315 36.6533 47.8116 37.537 48.0878C41.4065 49.1205 44.8543 51.5643 46.7689 54.7345C46.9832 55.0887 47.1639 55.455 47.3313 55.8213C47.9271 56.7699 48.3824 57.7246 48.6635 58.6432C49.3598 60.9549 49.1121 62.7621 48.2552 64.2572Z" fill="#F2F2F2"/>
<path d="M27.8901 25.6921C26.5043 24.4552 25.3662 23.4285 24.5428 22.69C21.6908 20.1202 21.3092 19.7539 21.1954 19.0875C21.095 18.5171 21.1687 17.5984 25.2122 13.6837C29.8851 9.15647 31.0701 9.13846 31.5722 9.18049C32.6969 9.27656 33.7747 10.1472 35.9237 11.8824C37.8585 13.4435 38.1329 14.104 39.271 14.2841C40.0275 14.4042 40.6368 14.23 43.2878 13.0832C46.2938 11.7863 46.8762 11.6542 47.1908 11.396C47.2377 11.36 47.2645 11.324 47.3046 11.282C48.4427 10.0991 48.0812 8.44197 47.9741 7.07901C47.8134 5.09161 47.6729 3.28434 48.6436 2.27563C49.4871 1.39902 50.6319 1.68722 55.3383 1.67521C60.9952 1.6632 62.602 1.24291 63.3719 2.27563C64.0012 3.12823 64.0212 4.90548 64.0413 6.47859C64.048 6.80282 64.0346 6.79081 64.0413 7.07901C64.0614 7.94962 64.1016 9.59478 64.7108 10.6815C65.2062 11.5642 66.3778 12.0745 68.7276 13.0832C70.7427 13.9538 71.7536 14.3862 72.7444 14.2841C74.0432 14.152 74.967 13.3955 76.7612 11.8824C77.3905 11.354 77.598 10.9998 78.4549 10.3033C79.5596 9.40865 80.1152 8.97034 80.778 8.88028C81.809 8.73017 82.4718 9.46269 84.7948 11.282C87.4928 13.3955 87.7472 13.3174 89.4811 14.8845C92.0652 17.2201 92.179 18.0247 92.1589 18.487C92.1188 19.3096 91.61 19.928 90.82 20.8887C90.4451 21.345 90.0166 21.7773 88.1421 23.2904C85.8593 25.1277 85.6182 25.1937 85.4643 25.6921C85.2567 26.3826 85.7655 27.3613 86.8032 29.2946C87.7405 31.0419 88.2225 31.9245 88.8116 32.2967C89.7422 32.8792 90.4317 32.711 93.4979 32.8972C96.2226 33.0653 97.595 33.1433 98.1841 33.4976C99.831 34.4883 99.9716 36.5597 100.193 40.1022C100.413 43.6267 100.574 46.1845 98.8536 47.3073C98.3716 47.6195 97.1866 47.7216 94.8368 47.9077C91.1681 48.1959 90.5991 47.9317 89.4811 48.5081C88.2091 49.1626 87.5999 50.1773 86.8032 51.5103C85.886 53.0413 85.1228 54.3202 85.4643 55.7132C85.7789 56.9861 86.6894 57.0281 88.8116 59.3157C90.4786 61.111 91.4426 62.1557 91.4895 63.5187C91.5029 63.8549 91.4761 64.9357 88.8116 67.7217C85.7789 70.8919 84.2592 72.471 82.1169 72.525C80.209 72.5731 78.7027 71.4563 76.0917 69.5229C74.5587 68.3821 73.4473 67.2893 72.7444 66.5208" stroke="#565656" stroke-width="5" stroke-miterlimit="10" stroke-linecap="round"/>
<path d="M70.7359 53.3115C78.4481 46.0644 78.1469 34.4102 70.0664 27.4933C61.9859 20.5765 48.9916 20.8467 41.2793 28.0938" stroke="#565656" stroke-width="5" stroke-miterlimit="10" stroke-linecap="round"/>
<path d="M46.6351 54.5124C42.9396 48.364 33.3328 45.5781 26.5511 49.709C20.3384 53.4916 18.9593 61.5793 23.2037 67.1212C27.6825 72.9694 37.2157 74.4164 43.2877 70.1234C48.5163 66.4187 49.6477 59.5259 46.6351 54.5124Z" stroke="#565656" stroke-width="5" stroke-miterlimit="10" stroke-linecap="round"/>
<path d="M66.0496 65.3199C65.5341 65.6742 64.5902 65.7582 62.7023 65.9203C61.0018 66.0644 60.7876 65.9023 60.1248 66.2085C59.3348 66.5808 58.4712 67.3614 58.016 68.322C57.4068 69.2767 57.2528 70.0513 57.2528 70.6036C57.2528 70.9219 57.2997 71.168 57.3465 71.3241C57.3934 71.4863 57.4402 71.6184 57.4804 71.7144C57.708 72.1767 58.1432 72.519 59.2545 73.96C60.1516 75.1188 60.6537 75.6892 60.6939 76.1275C60.8545 77.8387 59.134 79.4238 57.3465 80.9309C55.5992 82.4079 54.1799 83.6088 52.6603 83.3326C51.9707 83.2065 51.9841 82.9123 49.9824 81.5313C48.3087 80.3785 47.4652 79.7841 46.635 79.7301C45.8183 79.676 44.9748 80.0903 43.2877 80.9309C41.7279 81.7054 40.9513 82.0897 40.6098 82.7322C40.4023 83.1164 40.4224 83.4106 40.6098 85.7343C40.7973 88.0339 40.9379 88.172 40.717 88.5142C40.2149 89.2888 39.137 89.0546 34.5846 89.3368C31.7193 89.5109 29.336 89.7571 28.5594 88.7364C28.3318 88.4362 28.4322 88.3221 28.2515 85.9444C28.1042 84.0351 27.9971 83.5968 27.9167 83.3986C27.9167 83.3866 27.9101 83.3746 27.9034 83.3626C27.9034 83.3626 27.8967 83.3446 27.89 83.3326C27.187 81.8556 25.2121 80.9309 25.2121 80.9309C25.2121 80.9309 23.3778 80.0723 21.8648 80.3305C21.8447 80.3365 21.8246 80.3365 21.8246 80.3365C21.7777 80.3485 21.6974 80.3665 21.5635 80.4145C21.1016 80.5887 20.653 80.9729 18.9191 82.2759C17.4998 83.3506 16.7835 83.915 16.509 83.933C14.755 84.0411 13.309 82.558 11.1533 80.3305C9.19175 78.3071 8.15407 77.2443 8.47542 76.1275C8.66956 75.4611 9.19844 74.9147 10.3633 73.8519C12.2378 72.1347 12.8872 72.1767 13.1617 71.3241C13.4362 70.4715 12.9006 69.5529 11.8228 67.7216C10.9324 66.2085 10.3365 65.5241 9.81435 65.3199C8.60931 64.8396 6.94903 65.2118 6.46702 65.3199C5.87789 65.452 4.8603 65.7582 3.86279 65.3499C3.85609 65.3499 3.82262 65.3319 3.78915 65.3199C2.27615 64.6414 1.90795 61.5913 1.78075 60.5165C1.60668 59.0815 1.68033 58.1869 1.78075 56.914C1.92803 55.0227 2.19582 54.6924 2.45021 54.5123C2.92554 54.1761 3.40086 54.3142 5.79755 54.5123C8.44864 54.7345 8.83024 54.6444 9.14489 54.5123C10.1558 54.092 10.5976 53.2154 11.1533 52.1106C11.6822 51.0659 12.3449 49.769 11.8228 48.5081C11.6286 48.0518 11.1533 47.3613 10.698 46.7909C9.73402 45.59 9.43945 45.5961 9.23861 45.1397C8.70304 43.9029 10.2562 42.3057 11.8228 40.7026C14.2328 38.2349 16.2546 37.5204 17.1785 37.7005C17.3325 37.7305 17.3325 37.7485 19.2672 38.7933C21.4698 39.9881 21.6104 40.0602 21.8648 40.1022C23.7527 40.3964 25.3192 39.6939 25.6339 39.5438C26.2899 39.2316 27.341 38.7332 27.89 37.7005C28.1912 37.1301 28.1042 36.8479 28.2649 34.3742C28.3787 32.5789 28.4456 32.4408 28.5594 32.2967C29.1686 31.5282 30.3603 31.6903 33.9152 31.6963C38.0793 31.7023 39.1705 31.4861 39.9404 32.2967C40.4492 32.8311 40.5027 33.4975 40.6098 34.6984C40.7906 36.7999 40.0341 37.4363 40.6098 38.3009C40.8843 38.7092 41.1588 38.7212 43.5756 39.5918C46.4476 40.6306 46.6886 40.8467 47.3045 40.7026C47.9807 40.5405 48.6501 39.796 49.9824 38.3009C50.5447 37.6705 51.3079 36.8299 52.5665 36.5177C52.6 36.5057 52.6268 36.5057 52.6603 36.4997C54.1465 36.3135 55.4988 38.2169 57.3465 40.1022C60.0512 42.8701 61.5842 43.2484 61.3633 44.3051C61.2629 44.7975 60.9081 44.8155 58.9599 46.4967C57.621 47.6555 56.9515 48.2499 56.7909 48.7903C56.5833 49.4748 57.0118 50.3994 57.8754 52.2487C58.4712 53.5336 58.8193 54.1641 59.3549 54.5123C60.1918 55.0527 61.1759 55.0767 62.7023 55.1127C64.5835 55.1548 64.8044 54.8486 65.3801 55.1127C65.7952 55.3049 66.4379 55.8152 66.7191 59.9161C66.9333 63.0623 67.0203 64.6535 66.0496 65.3199Z" stroke="#565656" stroke-width="5" stroke-miterlimit="10" stroke-linecap="round"/>
</g>
<defs>
<clipPath id="clip0_68_190">
<rect width="102" height="91" fill="white"/>
</clipPath>
</defs>
</svg>
