<svg width="138" height="107" viewBox="0 0 138 107" fill="none" xmlns="http://www.w3.org/2000/svg">
<g clip-path="url(#clip0_43_265)">
<g filter="url(#filter0_d_43_265)">
<path d="M45 24.3125H113" stroke="#565656" stroke-width="7" stroke-miterlimit="10" stroke-linecap="round"/>
</g>
<g filter="url(#filter1_d_43_265)">
<path d="M22.63 32.3625H16.36C13.4 32.3625 11 29.9475 11 26.9589V20.6497C11 17.6712 13.4 15.2562 16.37 15.2562H22.64C25.6 15.2562 28 17.6712 28 20.6598V26.969C28 29.9475 25.6 32.3625 22.63 32.3625Z" fill="#E8E8E8"/>
<path d="M22.63 32.3625H16.36C13.4 32.3625 11 29.9475 11 26.9589V20.6497C11 17.6712 13.4 15.2562 16.37 15.2562H22.64C25.6 15.2562 28 17.6712 28 20.6598V26.969C28 29.9475 25.6 32.3625 22.63 32.3625Z" stroke="#565656" stroke-width="4" stroke-miterlimit="10" stroke-linecap="round"/>
</g>
<g filter="url(#filter2_d_43_265)">
<path d="M22.63 65.5688H16.36C13.4 65.5688 11 63.1538 11 60.1652V53.856C11 50.8775 13.4 48.4625 16.37 48.4625H22.64C25.6 48.4625 28 50.8775 28 53.8661V60.1753C28 63.1538 25.6 65.5688 22.63 65.5688Z" fill="#E8E8E8"/>
<path d="M22.63 65.5688H16.36C13.4 65.5688 11 63.1538 11 60.1652V53.856C11 50.8775 13.4 48.4625 16.37 48.4625H22.64C25.6 48.4625 28 50.8775 28 53.8661V60.1753C28 63.1538 25.6 65.5688 22.63 65.5688Z" stroke="#565656" stroke-width="4" stroke-miterlimit="10" stroke-linecap="round"/>
</g>
<g filter="url(#filter3_d_43_265)">
<path d="M22.6302 98.775H16.3602C13.4002 98.775 10.9902 96.36 10.9902 93.3714V87.0623C10.9902 84.0838 13.3902 81.6587 16.3602 81.6587H22.6302C25.5902 81.6587 28.0002 84.0737 28.0002 87.0623V93.3714C28.0002 96.36 25.6002 98.775 22.6302 98.775Z" fill="#E8E8E8"/>
<path d="M22.6302 98.775H16.3602C13.4002 98.775 10.9902 96.36 10.9902 93.3714V87.0623C10.9902 84.0838 13.3902 81.6587 16.3602 81.6587H22.6302C25.5902 81.6587 28.0002 84.0737 28.0002 87.0623V93.3714C28.0002 96.36 25.6002 98.775 22.6302 98.775Z" stroke="#565656" stroke-width="4" stroke-miterlimit="10" stroke-linecap="round"/>
</g>
<g filter="url(#filter4_d_43_265)">
<path d="M44.98 57.5188H112.98" stroke="#565656" stroke-width="7" stroke-miterlimit="10" stroke-linecap="round"/>
</g>
<g filter="url(#filter5_d_43_265)">
<path d="M45 90.725H113" stroke="#565656" stroke-width="7" stroke-miterlimit="10" stroke-linecap="round"/>
</g>
</g>
<defs>
<filter id="filter0_d_43_265" x="37.5" y="20.8125" width="83" height="15" filterUnits="userSpaceOnUse" color-interpolation-filters="sRGB">
<feFlood flood-opacity="0" result="BackgroundImageFix"/>
<feColorMatrix in="SourceAlpha" type="matrix" values="0 0 0 0 0 0 0 0 0 0 0 0 0 0 0 0 0 0 127 0" result="hardAlpha"/>
<feOffset dy="4"/>
<feGaussianBlur stdDeviation="2"/>
<feComposite in2="hardAlpha" operator="out"/>
<feColorMatrix type="matrix" values="0 0 0 0 0 0 0 0 0 0 0 0 0 0 0 0 0 0 0.25 0"/>
<feBlend mode="normal" in2="BackgroundImageFix" result="effect1_dropShadow_43_265"/>
<feBlend mode="normal" in="SourceGraphic" in2="effect1_dropShadow_43_265" result="shape"/>
</filter>
<filter id="filter1_d_43_265" x="5" y="13.2562" width="29" height="29.1062" filterUnits="userSpaceOnUse" color-interpolation-filters="sRGB">
<feFlood flood-opacity="0" result="BackgroundImageFix"/>
<feColorMatrix in="SourceAlpha" type="matrix" values="0 0 0 0 0 0 0 0 0 0 0 0 0 0 0 0 0 0 127 0" result="hardAlpha"/>
<feOffset dy="4"/>
<feGaussianBlur stdDeviation="2"/>
<feComposite in2="hardAlpha" operator="out"/>
<feColorMatrix type="matrix" values="0 0 0 0 0 0 0 0 0 0 0 0 0 0 0 0 0 0 0.25 0"/>
<feBlend mode="normal" in2="BackgroundImageFix" result="effect1_dropShadow_43_265"/>
<feBlend mode="normal" in="SourceGraphic" in2="effect1_dropShadow_43_265" result="shape"/>
</filter>
<filter id="filter2_d_43_265" x="5" y="46.4625" width="29" height="29.1062" filterUnits="userSpaceOnUse" color-interpolation-filters="sRGB">
<feFlood flood-opacity="0" result="BackgroundImageFix"/>
<feColorMatrix in="SourceAlpha" type="matrix" values="0 0 0 0 0 0 0 0 0 0 0 0 0 0 0 0 0 0 127 0" result="hardAlpha"/>
<feOffset dy="4"/>
<feGaussianBlur stdDeviation="2"/>
<feComposite in2="hardAlpha" operator="out"/>
<feColorMatrix type="matrix" values="0 0 0 0 0 0 0 0 0 0 0 0 0 0 0 0 0 0 0.25 0"/>
<feBlend mode="normal" in2="BackgroundImageFix" result="effect1_dropShadow_43_265"/>
<feBlend mode="normal" in="SourceGraphic" in2="effect1_dropShadow_43_265" result="shape"/>
</filter>
<filter id="filter3_d_43_265" x="4.99023" y="79.6587" width="29.01" height="29.1163" filterUnits="userSpaceOnUse" color-interpolation-filters="sRGB">
<feFlood flood-opacity="0" result="BackgroundImageFix"/>
<feColorMatrix in="SourceAlpha" type="matrix" values="0 0 0 0 0 0 0 0 0 0 0 0 0 0 0 0 0 0 127 0" result="hardAlpha"/>
<feOffset dy="4"/>
<feGaussianBlur stdDeviation="2"/>
<feComposite in2="hardAlpha" operator="out"/>
<feColorMatrix type="matrix" values="0 0 0 0 0 0 0 0 0 0 0 0 0 0 0 0 0 0 0.25 0"/>
<feBlend mode="normal" in2="BackgroundImageFix" result="effect1_dropShadow_43_265"/>
<feBlend mode="normal" in="SourceGraphic" in2="effect1_dropShadow_43_265" result="shape"/>
</filter>
<filter id="filter4_d_43_265" x="37.48" y="54.0188" width="83" height="15" filterUnits="userSpaceOnUse" color-interpolation-filters="sRGB">
<feFlood flood-opacity="0" result="BackgroundImageFix"/>
<feColorMatrix in="SourceAlpha" type="matrix" values="0 0 0 0 0 0 0 0 0 0 0 0 0 0 0 0 0 0 127 0" result="hardAlpha"/>
<feOffset dy="4"/>
<feGaussianBlur stdDeviation="2"/>
<feComposite in2="hardAlpha" operator="out"/>
<feColorMatrix type="matrix" values="0 0 0 0 0 0 0 0 0 0 0 0 0 0 0 0 0 0 0.25 0"/>
<feBlend mode="normal" in2="BackgroundImageFix" result="effect1_dropShadow_43_265"/>
<feBlend mode="normal" in="SourceGraphic" in2="effect1_dropShadow_43_265" result="shape"/>
</filter>
<filter id="filter5_d_43_265" x="37.5" y="87.225" width="83" height="15" filterUnits="userSpaceOnUse" color-interpolation-filters="sRGB">
<feFlood flood-opacity="0" result="BackgroundImageFix"/>
<feColorMatrix in="SourceAlpha" type="matrix" values="0 0 0 0 0 0 0 0 0 0 0 0 0 0 0 0 0 0 127 0" result="hardAlpha"/>
<feOffset dy="4"/>
<feGaussianBlur stdDeviation="2"/>
<feComposite in2="hardAlpha" operator="out"/>
<feColorMatrix type="matrix" values="0 0 0 0 0 0 0 0 0 0 0 0 0 0 0 0 0 0 0.25 0"/>
<feBlend mode="normal" in2="BackgroundImageFix" result="effect1_dropShadow_43_265"/>
<feBlend mode="normal" in="SourceGraphic" in2="effect1_dropShadow_43_265" result="shape"/>
</filter>
<clipPath id="clip0_43_265">
<rect width="138" height="107" fill="white"/>
</clipPath>
</defs>
</svg>
