<svg width="110" height="88" viewBox="0 0 110 88" fill="none" xmlns="http://www.w3.org/2000/svg">
<path d="M81.5517 1.76001H29.7126V85.0667H81.5517V1.76001Z" fill="#F2F2F2"/>
<path d="M105.575 12.3199H81.5518V85.0666H105.575V12.3199Z" fill="#F2F2F2"/>
<path d="M28.4483 12.3199H4.42529V85.0666H28.4483V12.3199Z" fill="#F2F2F2" stroke="#565656" stroke-width="2" stroke-miterlimit="10" stroke-linecap="round" stroke-linejoin="round"/>
<path d="M29.0806 1.76001V87.4133" stroke="#565656" stroke-width="4" stroke-miterlimit="10"/>
<path d="M80.9194 1.76001V87.4133" stroke="#565656" stroke-width="4" stroke-miterlimit="10"/>
<path d="M2.52881 85.6533H107.471" stroke="#565656" stroke-width="4" stroke-miterlimit="10" stroke-linecap="round"/>
<path d="M83.4483 2.34668H26.5518" stroke="#565656" stroke-width="4" stroke-miterlimit="10" stroke-linecap="round"/>
<path d="M80.9194 12.9066H107.471" stroke="#565656" stroke-width="4" stroke-miterlimit="10" stroke-linecap="round"/>
<path d="M2.52881 12.9066H29.0805" stroke="#565656" stroke-width="4" stroke-miterlimit="10" stroke-linecap="round"/>
<path d="M3.79321 85.6533V12.9066" stroke="#565656" stroke-width="4" stroke-miterlimit="10" stroke-linecap="round"/>
<path d="M106.207 85.6533V12.9066" stroke="#565656" stroke-width="4" stroke-miterlimit="10" stroke-linecap="round"/>
<path d="M55.6321 85.6533V62.1866" stroke="#565656" stroke-width="4" stroke-miterlimit="10" stroke-linecap="round"/>
<path d="M40.4597 85.6533V62.1866" stroke="#565656" stroke-width="4" stroke-miterlimit="10" stroke-linecap="round"/>
<path d="M70.8045 62.1866H39.1953" stroke="#565656" stroke-width="4" stroke-miterlimit="10" stroke-linecap="round"/>
<path d="M69.5403 63.36V73.92" stroke="#565656" stroke-width="3" stroke-miterlimit="10" stroke-linecap="round"/>
<path d="M69.5403 85.6533V79.7866" stroke="#565656" stroke-width="3" stroke-miterlimit="10" stroke-linecap="round"/>
<path d="M5.05737 19.9467H20.2298" stroke="#565656" stroke-width="3" stroke-miterlimit="10" stroke-linecap="round"/>
<path d="M5.05737 28.16H16.4367" stroke="#565656" stroke-width="3" stroke-miterlimit="10" stroke-linecap="round"/>
<path d="M12.6438 35.2H3.79321" stroke="#565656" stroke-width="3" stroke-miterlimit="10" stroke-linecap="round"/>
<path d="M106.207 75.0934H89.77" stroke="#565656" stroke-width="3" stroke-miterlimit="10" stroke-linecap="round"/>
<path d="M92.2988 66.88H103.678" stroke="#565656" stroke-width="3" stroke-miterlimit="10" stroke-linecap="round"/>
<path d="M104.943 58.6666H96.092" stroke="#565656" stroke-width="3" stroke-miterlimit="10" stroke-linecap="round"/>
<path d="M47.4139 32.6421H37.2737V49.8666H47.4139V32.6421Z" fill="#F2F2F2" stroke="#565656" stroke-width="3" stroke-miterlimit="10" stroke-linecap="round" stroke-linejoin="round"/>
<path d="M50.5747 25.8134V8.21338" stroke="#565656" stroke-width="3" stroke-miterlimit="10" stroke-linecap="round" stroke-linejoin="round"/>
<path d="M60.6896 25.8134H50.5747" stroke="#565656" stroke-width="3" stroke-miterlimit="10" stroke-linecap="round" stroke-linejoin="round"/>
<path d="M60.6897 21.12V25.8133" stroke="#565656" stroke-width="3" stroke-miterlimit="10" stroke-linecap="round" stroke-linejoin="round"/>
<path d="M60.6896 8.21338H50.5747" stroke="#565656" stroke-width="3" stroke-miterlimit="10" stroke-linecap="round" stroke-linejoin="round"/>
<path d="M60.6897 14.6667V8.80005" stroke="#565656" stroke-width="3" stroke-miterlimit="10" stroke-linecap="round" stroke-linejoin="round"/>
<path d="M62.5862 32.2667V49.8667" stroke="#565656" stroke-width="3" stroke-miterlimit="10" stroke-linecap="round" stroke-linejoin="round"/>
<path d="M72.7011 49.8667H62.5862" stroke="#565656" stroke-width="3" stroke-miterlimit="10" stroke-linecap="round" stroke-linejoin="round"/>
<path d="M72.7012 32.2667V49.8667" stroke="#565656" stroke-width="3" stroke-miterlimit="10" stroke-linecap="round" stroke-linejoin="round"/>
<path d="M62.5862 32.2667H72.7011" stroke="#565656" stroke-width="3" stroke-miterlimit="10" stroke-linecap="round" stroke-linejoin="round"/>
</svg>
